<?xml version="1.0" encoding="UTF-8"?>
<svg id="Layer_2" data-name="Layer 2" xmlns="http://www.w3.org/2000/svg" viewBox="0 0 72.49 101.85">
  <defs>
    <style>
      .cls-1 {
        fill: #050051;
      }

      .cls-2 {
        fill: #36f;
      }

      .cls-3 {
        fill: #61a4ff;
      }
    </style>
  </defs>
  <g id="Layer_1-2" data-name="Layer 1">
    <g>
      <path class="cls-2" d="M63.77,33.77c2.19,1.62,1.82,9.05,1.53,11.59-.14,1.26-.4,2.62-.68,3.78-2.41,9.89-10.89,15.49-14.05,25.22-.73,2.24-.26,4.16-3.22,4.4-9.37-.49-19.37.63-28.67,0-3.37-.23-2.64-1.54-3.44-4.02C11.64,63.49,1.7,58.21.23,45.54-2.23,24.35,15.47,8.34,36.23,11.02c.34.04,2.01.36,2.18.47.98.6-.11,4.17.65,5.14,1.11,1.43,5.44-.98,6.74,1.54s-1.65,7.12,3.86,6.74c4.39-.31,2.64-2.43,3.06-5.39.05-.37-.11-1.7.68-2.14l8.61-.19c.91.17,1.05,1.08,1.13,1.86.09.85.14,5.08-.1,5.65-.29.66-1.66,1.07-2.32,1.16-1.4.19-3.96-.57-4.66.81-.3.59-.26,3.47-.18,4.28.14,1.47.53,2.11,2.06,2.25,1.79.16,4.4-.5,5.83.56ZM18.36,28.56c.93-.2,2.47.15,3.48,0,.57.54-1.17,12.45.25,14.95.59,1.04,2.22,1.46,3.35,1.24,1.71-.32,4.28-3.19,3.73-4.98-.43-1.42-1.81.67-2.66.91-1.6.45-1.9-.09-1.95-1.6-.03-.97.11-2.47.17-3.48.15-2.25.54-4.51.69-6.77.05-.22.2-.24.39-.27.84-.16,3.63.29,4.07-.24.08-.09.64-2.17.63-2.29-.08-.64-.71-1.38-1.38-1.45-4.5-.49-9.83.37-14.42,0-2.51.4-4.75,3.17-4.98,5.64-.17,1.86,2.73-.9,3.19-1.13.41-.21,1.46-.76,1.79-.36.76-.04-.02,3.19-.08,3.73s-.34,3.8-.71,5.25c-.56,2.25-1.98,2.72-2.59,4.2-.55,1.33-.28,2.7,1.39,2.72,1.31,0,3.48-1.63,3.85-6.26.19-2.33.82-4.87,1-7.12.06-.69-.3-2.46.78-2.7ZM31.74,39.7c-.2.19-.59,1.36-.51,1.66.18.66,1.45.93,1.87,1.46.14.18,1.77,5.33,2.44,6.17.6.76,2.22.62,2.58-.35l6.01-15.03c.65-.79,4.6-.4,5.05-.42.84-.04,2.92.35,3.2-.61.3-1.02-.03-2.22-1.2-2.37-1.46-.2-6.84-.2-8.3,0-1.29.18-1.61,1.75-2.02,2.78-1.11,2.83-3.92,10.47-4.1,10.47-.77-.57-1.21-3.56-1.9-3.89-.38-.18-2.81-.16-3.11.13ZM53.52,48.31c.61.6-.59,2.58,1.77,2.11.95-.19.89-3.28.74-4.05-.09-.46-.64-.84-1.08-.91l-12.59-.02c-1.1.25-1.15.94-.71,1.89.39.84,1.78,2.7,2.39,3.57.44.64,3.06,3.78,3.02,4.21l-6.14,8.77c-.18.26-.11.79.15.96l12.1.02c1.04-.34,2.69-3.87,2.53-4.91-.11-.73-1.34-.78-1.76-.44-.36.29-.09,1.24-1.17,1.98-1.14.78-1.97.32-3.29.35-.55.01-3.05.59-3.06-.23.05-.35.29-.59.46-.87.97-1.58,3.01-3.68,3.75-5.2.56-1.15.17-1.54-.49-2.45-.95-1.31-2.31-2.64-3.27-4.03-.4-.58-.29-.86.46-.96,1.19-.15,4.07-.1,5.32,0,.3.03.61.02.86.21ZM20.27,54.07h10.19c.52,0,.77-2.64-.17-2.65l-14.09.15-.4,1.24,5.95,7.8-5.08,7.16c-.37.78-.36,2.09.7,2.2l11.91-.04c.64-.2.52-3.24.37-3.46-.16-.24-.87-.2-1.14-.12-.32.1-.91.96-1.03.96h-6.63l-.18-.34c.04-.07.09-.14.13-.21.79-1.5,3.55-4.07,4.02-5.42.1-.3.14-.6.1-.91-.11-1-3.61-4.55-4.39-5.72-.13-.2-.31-.38-.26-.65Z"/>
      <path class="cls-1" d="M23.7,97.35c-.22-.24-1.08-1.14-1.28-1.29-.75-.54-1.99-.73-2.79-1.35-1.55-1.19-1.82-3.96.29-4.61l25.78.07c2.09.43,1.68,3.25.42,4.41-.95.86-2.37.89-3.15,1.48-.49.37-1.33,1.9-2.07,2.57-4.55,4.09-11.08,4.35-15.81.4-.72-.6-.91-1.16-1.39-1.68Z"/>
      <path class="cls-1" d="M19.07,81.94l26.79-.04c3.35-.18,4.15,4.71.83,5.3h-27.81c-2.87-.41-2.82-4.82.19-5.26Z"/>
      <path class="cls-3" d="M61.13,8.06c.45-.13,4.49-.12,5.11-.04.55.07.67.2.75.75.12.91.12,3.91,0,4.82-.03.23-.04.43-.24.59-.5.4-4.94.07-5.9.07-.44-.29-.41-4.43-.33-5.14.04-.38.21-.92.62-1.04Z"/>
      <path class="cls-3" d="M53.18.11c.64-.14,3.57-.14,4.28-.04.78.1,1.01.72,1.08,1.41s.11,4.21-.33,4.49c-1,.2-5.08.57-5.66-.16-.13-.17-.13-.31-.16-.51-.09-.7-.11-3.83.01-4.48.07-.38.42-.63.78-.71Z"/>
      <path class="cls-3" d="M50.2,8.24c.19.15.35.6.39.85.1.82.11,3.34,0,4.15-.12.89-.72.7-1.43.89-.84-.35-3.23.16-3.87-.23-.53-.32-.31-5.27-.02-5.65.2-.26.47-.21.75-.24.67-.07,3.8-.08,4.19.23Z"/>
      <path class="cls-3" d="M68.09,24.62c.34-.1,3.19-.11,3.61-.03.22.04.48.21.59.4.22.37.24,3.25.16,3.83-.15,1.07-.9.72-1.56.76s-1.81.18-2.46.12c-1.34-.14-1.31-4.78-.34-5.07Z"/>
    </g>
  </g>
</svg>